<svg width="148" height="29" viewBox="0 0 148 29" fill="none" xmlns="http://www.w3.org/2000/svg">
<g clip-path="url(#clip0_1142_5214)">
<path d="M28.7523 0H0V1.91991H28.7523V0Z" fill="#D66933"/>
<path d="M25.4079 3.83983H3.34436V5.75974H25.4079V3.83983Z" fill="#D66933"/>
<path d="M0 9.58409H9.58409V29H11.4885V9.58409H11.504V7.66417H0V9.58409Z" fill="#D66933"/>
<path d="M17.2483 9.58409V29H19.1682V9.58409H28.7523V7.66417H17.2483V9.58409Z" fill="#D66933"/>
<path d="M15.3439 5.74426H13.424V25.6556H15.3439V5.74426Z" fill="#D66933"/>
<path d="M42.3156 7.8345H55.0272V9.76989H49.7165V23.0699H47.5334V9.76989H42.3156V7.8345Z" fill="white"/>
<path d="M57.1174 23.0545V7.86545H62.2424C63.9284 7.78872 65.6091 8.10685 67.1505 8.79446C68.3552 9.41037 69.3555 10.3623 70.0304 11.535C70.6334 12.564 70.9904 13.7185 71.0737 14.9083C71.1569 16.0981 70.9642 17.291 70.5104 18.394C70.1236 19.3139 69.5548 20.146 68.8382 20.8404C68.1037 21.5662 67.2219 22.1258 66.2525 22.4816C65.755 22.6926 65.2357 22.8484 64.7042 22.9461C63.794 23.0412 62.8786 23.0774 61.9637 23.0545H57.1174ZM62.0101 9.80085H59.2851V21.1346H62.103C62.9557 21.1586 63.8081 21.0807 64.6423 20.9023C65.1832 20.7944 65.705 20.6065 66.1906 20.3449C66.5959 20.1152 66.9661 19.8284 67.2899 19.4933C67.8139 18.9478 68.2214 18.3014 68.4876 17.5933C68.7538 16.8853 68.8731 16.1304 68.8382 15.3748C68.8659 14.6267 68.7323 13.8813 68.4464 13.1894C68.1606 12.4974 67.7292 11.8751 67.1815 11.3647C66.768 10.9805 66.298 10.662 65.788 10.4202C65.2979 10.186 64.7763 10.0243 64.2397 9.94022C63.5017 9.83176 62.7559 9.78513 62.0101 9.80085Z" fill="white"/>
<path d="M85.9162 7.86545H87.9599V23.0699H85.7768V11.2408L81.1319 17.1244H80.6828L76.0379 11.2408V23.0699H73.7773V7.86545H75.8366L80.8996 14.0587L85.9162 7.86545Z" fill="white"/>
<path d="M93.3481 7.8345H106.06V9.76989H100.811V23.0699H98.566V9.76989H93.3481V7.8345Z" fill="white"/>
<path d="M108.119 7.86545H116.759V9.80084H110.302V14.4458H116.496V16.3812H110.302V21.1345H116.96V23.0699H108.119V7.86545Z" fill="white"/>
<path d="M132.397 19.5862V21.9706C130.693 22.878 128.784 23.3313 126.854 23.2867C125.349 23.331 123.859 22.9786 122.534 22.2648C121.361 21.5801 120.388 20.5988 119.714 19.4192C119.04 18.2397 118.688 16.9036 118.694 15.5451C118.674 14.4993 118.875 13.4611 119.283 12.4981C119.691 11.535 120.298 10.6688 121.063 9.95568C121.839 9.21322 122.755 8.63133 123.756 8.24341C124.758 7.85549 125.826 7.66919 126.9 7.69515C128.742 7.75086 130.553 8.1774 132.227 8.94929V11.2872C130.655 10.3173 128.855 9.78292 127.009 9.73892C126.213 9.71258 125.421 9.84404 124.677 10.1257C123.933 10.4074 123.252 10.8338 122.673 11.3801C122.11 11.9087 121.665 12.55 121.366 13.2623C121.067 13.9746 120.922 14.7419 120.939 15.5141C120.923 16.2743 121.065 17.0294 121.359 17.7309C121.652 18.4323 122.089 19.0644 122.642 19.5862C123.23 20.1178 123.917 20.5282 124.664 20.7939C125.41 21.0596 126.202 21.1754 126.993 21.1345C128.906 21.1517 130.783 20.6139 132.397 19.5862Z" fill="white"/>
<path d="M145.805 7.86545H147.988V23.0699H145.805V16.4896H137.258V23.1009H135.075V7.89642H137.258V14.4768H145.805V7.86545Z" fill="white"/>
</g>
<defs>
<clipPath id="clip0_1142_5214">
<rect width="147.988" height="29" fill="white"/>
</clipPath>
</defs>
</svg>
