<svg width="257" height="51" viewBox="0 0 257 51" fill="none" xmlns="http://www.w3.org/2000/svg">
<g clip-path="url(#clip0_1142_4496)">
<path d="M49.9319 0H0V3.33417H49.9319V0Z" fill="white"/>
<path d="M44.1237 6.66833H5.80762V10.0025H44.1237V6.66833Z" fill="white"/>
<path d="M0 16.644H16.644V50.3621H19.9512V16.644H19.9781V13.3098H0V16.644Z" fill="white"/>
<path d="M29.9541 16.644V50.3621H33.2883V16.644H49.9322V13.3098H29.9541V16.644Z" fill="white"/>
<path d="M26.6467 9.97565H23.3125V44.5542H26.6467V9.97565Z" fill="white"/>
<path d="M73.4863 13.6056H95.5618V16.9666H86.339V40.0638H82.5477V16.9666H73.4863V13.6056Z" fill="white"/>
<path d="M99.1914 40.037V13.6594H108.091C111.02 13.5261 113.938 14.0786 116.615 15.2727C118.707 16.3423 120.444 17.9954 121.616 20.0319C122.664 21.819 123.284 23.8239 123.428 25.8901C123.573 27.9563 123.238 30.028 122.45 31.9435C121.778 33.5409 120.79 34.986 119.546 36.1919C118.27 37.4523 116.739 38.4243 115.056 39.0421C114.192 39.4085 113.29 39.679 112.367 39.8487C110.786 40.0139 109.196 40.0768 107.607 40.037H99.1914ZM107.688 17.0204H102.956V36.7028H107.849C109.33 36.7446 110.811 36.6092 112.259 36.2995C113.199 36.112 114.105 35.7858 114.948 35.3315C115.652 34.9326 116.295 34.4345 116.857 33.8526C117.767 32.9053 118.475 31.7826 118.937 30.553C119.399 29.3234 119.607 28.0125 119.546 26.7003C119.594 25.401 119.362 24.1066 118.866 22.905C118.369 21.7033 117.62 20.6226 116.669 19.7362C115.951 19.0691 115.135 18.5159 114.249 18.096C113.398 17.6893 112.492 17.4085 111.56 17.2624C110.278 17.0741 108.983 16.9931 107.688 17.0204Z" fill="white"/>
<path d="M149.205 13.6593H152.754V40.0638H148.963V19.521L140.896 29.7386H140.116L132.05 19.521V40.0638H128.124V13.6593H131.7L140.493 24.4147L149.205 13.6593Z" fill="white"/>
<path d="M162.11 13.6056H184.186V16.9666H175.071V40.0638H171.172V16.9666H162.11V13.6056Z" fill="white"/>
<path d="M187.762 13.6593H202.765V17.0204H191.553V25.0869H202.308V28.448H191.553V36.7027H203.115V40.0638H187.762V13.6593Z" fill="white"/>
<path d="M229.924 34.0139V38.1547C226.964 39.7305 223.649 40.5177 220.298 40.4402C217.685 40.5172 215.097 39.9052 212.796 38.6656C210.758 37.4766 209.069 35.7723 207.899 33.7239C206.728 31.6755 206.117 29.3552 206.127 26.996C206.093 25.1799 206.442 23.3769 207.15 21.7044C207.859 20.032 208.912 18.5276 210.241 17.2893C211.589 15.9999 213.179 14.9894 214.918 14.3157C216.658 13.642 218.513 13.3185 220.378 13.3636C223.576 13.4603 226.722 14.2011 229.628 15.5415V19.6017C226.899 17.9173 223.772 16.9892 220.566 16.9128C219.185 16.8671 217.809 17.0954 216.517 17.5846C215.225 18.0738 214.042 18.8142 213.038 19.763C212.059 20.6809 211.286 21.7947 210.767 23.0317C210.248 24.2687 209.995 25.6011 210.026 26.9422C209.997 28.2623 210.245 29.5737 210.755 30.7919C211.264 32.01 212.024 33.1076 212.984 34.0139C214.004 34.9371 215.197 35.6498 216.494 36.1112C217.79 36.5726 219.165 36.7737 220.54 36.7028C223.862 36.7326 227.121 35.7986 229.924 34.0139Z" fill="white"/>
<path d="M253.209 13.6593H257V40.0638H253.209V28.6362H238.366V40.1176H234.575V13.7131H238.366V25.1407H253.209V13.6593Z" fill="white"/>
</g>
<defs>
<clipPath id="clip0_1142_4496">
<rect width="257" height="50.3621" fill="white"/>
</clipPath>
</defs>
</svg>
